<svg width="15" height="10" viewBox="0 0 15 10" fill="none" xmlns="http://www.w3.org/2000/svg">
<path d="M1.36364 0C0.618366 0 0 0.604625 0 1.33333V8.66667C0 9.39538 0.618366 10 1.36364 10H13.6364C14.3816 10 15 9.39538 15 8.66667V1.33333C15 0.604625 14.3816 0 13.6364 0H1.36364ZM1.36364 1.33333H13.6364V8.66667H1.36364V1.33333ZM5.00843 3.33333L4.09091 6.66667H4.80868L4.98446 6H5.91664L6.09375 6.66667H6.81818L5.89533 3.33333H5.00843ZM7.5 3.33333V6.66667H8.18182V5.33333H8.52273C9.08727 5.33333 9.54545 4.88533 9.54545 4.33333C9.54545 3.78133 9.08727 3.33333 8.52273 3.33333H7.5ZM10.2273 3.33333V6.66667H10.9091V3.33333H10.2273ZM8.18182 4H8.52273C8.71091 4 8.86364 4.14933 8.86364 4.33333C8.86364 4.51733 8.71091 4.66667 8.52273 4.66667H8.18182V4ZM5.44922 4.23568L5.74086 5.33333H5.16024L5.44922 4.23568Z" fill="white"/>
</svg>
