<svg width="447" height="12" viewBox="0 0 447 12" fill="none" xmlns="http://www.w3.org/2000/svg">
<path d="M447 6L437 0.226497V11.7735L447 6ZM444.007 5H442.011V7H444.007V5ZM440.016 5L438.02 5V7H440.016V5ZM436.025 5H434.029V7H436.025V5ZM432.033 5H430.038V7H432.033V5ZM428.042 5L426.047 5V7L428.042 7V5ZM424.051 5H422.056V7H424.051V5ZM420.06 5H418.065V7H420.06V5ZM416.069 5H414.074V7H416.069V5ZM412.078 5H410.083V7H412.078V5ZM408.087 5H406.092V7H408.087V5ZM404.096 5H402.1V7H404.096V5ZM400.105 5H398.109V7H400.105V5ZM396.114 5H394.118V7H396.114V5ZM392.123 5H390.127V7H392.123V5ZM388.132 5H386.136V7H388.132V5ZM384.141 5H382.145V7H384.141V5ZM380.15 5H378.154V7L380.15 7V5ZM376.158 5H374.163V7H376.158V5ZM372.167 5H370.172V7H372.167V5ZM368.176 5L366.181 5V7H368.176V5ZM364.185 5H362.19V7H364.185V5ZM360.194 5H358.199V7H360.194V5ZM356.203 5H354.208V7H356.203V5ZM352.212 5L350.216 5V7L352.212 7V5ZM348.221 5H346.225V7H348.221V5ZM344.23 5H342.234V7H344.23V5ZM340.239 5L338.243 5V7L340.239 7V5ZM336.248 5H334.252V7H336.248V5ZM332.257 5H330.261V7H332.257V5ZM328.266 5H326.27V7H328.266V5ZM324.275 5L322.279 5V7H324.275V5ZM320.283 5H318.288V7H320.283V5ZM316.292 5H314.297V7H316.292V5ZM312.301 5H310.306V7L312.301 7V5ZM308.31 5H306.315V7H308.31V5ZM304.319 5H302.324V7H304.319V5ZM300.328 5H298.333V7H300.328V5ZM296.337 5H294.342V7H296.337V5ZM292.346 5H290.35V7H292.346V5ZM288.355 5H286.359V7H288.355V5ZM284.364 5H282.368V7H284.364V5ZM280.373 5H278.377V7H280.373V5ZM276.382 5H274.386V7H276.382V5ZM272.391 5H270.395V7H272.391V5ZM268.4 5H266.404V7H268.4V5ZM264.409 5H262.413V7L264.409 7V5ZM260.418 5H258.422V7H260.418V5ZM256.426 5H254.431V7H256.426V5ZM252.435 5L250.44 5V7H252.435V5ZM248.444 5H246.449V7H248.444V5ZM244.453 5H242.458V7H244.453V5ZM240.462 5H238.467V7H240.462V5ZM236.471 5L234.476 5V7L236.471 7V5ZM232.48 5H230.485V7H232.48V5ZM228.489 5H226.494V7H228.489V5ZM224.498 5L222.503 5V7L224.498 7V5ZM220.507 5H218.511V7H220.507V5ZM216.516 5H214.52V7H216.516V5ZM212.525 5H210.529V7H212.525V5ZM208.534 5L206.538 5V7H208.534V5ZM204.543 5H202.547V7H204.543V5ZM200.552 5H198.556V7H200.552V5ZM196.561 5H194.565V7L196.561 7V5ZM192.57 5H190.574V7H192.57V5ZM188.578 5H186.583V7H188.578V5ZM184.587 5H182.592V7H184.587V5ZM180.596 5H178.601V7H180.596V5ZM176.605 5H174.61V7H176.605V5ZM172.614 5H170.619V7H172.614V5ZM168.623 5H166.628V7H168.623V5ZM164.632 5H162.636V7H164.632V5ZM160.641 5H158.645V7H160.641V5ZM156.65 5H154.654V7H156.65V5ZM152.659 5H150.663V7H152.659V5ZM148.668 5H146.672V7L148.668 7V5ZM144.677 5H142.681V7H144.677V5ZM140.685 5H138.69V7H140.685V5ZM136.694 5L134.699 5V7H136.694V5ZM132.703 5H130.708V7H132.703V5ZM128.712 5H126.717V7H128.712V5ZM124.721 5H122.726V7H124.721V5ZM120.73 5L118.734 5V7L120.73 7V5ZM116.739 5H114.743V7H116.739V5ZM112.748 5H110.752V7H112.748V5ZM108.757 5L106.761 5V7L108.757 7V5ZM104.766 5H102.77V7H104.766V5ZM100.775 5H98.779V7H100.775V5ZM96.7834 5H94.7879V7H96.7834V5ZM92.7923 5H90.7968V7H92.7923V5ZM88.8013 5H86.8057V7H88.8013V5ZM84.8102 5H82.8146V7H84.8102V5ZM80.8191 5H78.8235V7L80.8191 7V5ZM76.828 5H74.8325V7H76.828V5ZM72.8369 5H70.8414V7H72.8369V5ZM68.8458 5H66.8503V7H68.8458V5ZM64.8547 5H62.8592V7H64.8547V5ZM60.8636 5H58.8681V7L60.8636 7V5ZM56.8725 5H54.877V7H56.8725V5ZM52.8815 5H50.8859V7H52.8815V5ZM48.8904 5H46.8948V7H48.8904V5ZM44.8993 5H42.9037V7H44.8993V5ZM40.9082 5H38.9127V7H40.9082V5ZM36.9171 5H34.9216V7H36.9171V5ZM32.926 5L30.9305 5V7L32.926 7V5ZM28.9349 5H26.9394V7H28.9349V5ZM24.9438 5H22.9483V7H24.9438V5ZM20.9527 5L18.9572 5V7L20.9527 7V5ZM16.9617 5H14.9661V7H16.9617V5ZM12.9706 5H10.975V7H12.9706V5ZM8.97949 5H6.98395V7H8.97949V5ZM4.98837 5L2.99286 5V7H4.98837V5ZM0.997314 5H0V7H0.997314V5Z" fill="#A3A3A3"/>
</svg>
