<svg width="40" height="40" viewBox="0 0 40 40" fill="none" xmlns="http://www.w3.org/2000/svg">
<path d="M16 0V4L17.6 5.6V1.6H28.8V11.2H38.4V32H27.2V33.6H40V10.075L29.925 0H16ZM30.4 2.725L37.275 9.6H30.4V2.725ZM0 5.6V40H25.6V15.675L25.375 15.425L15.775 5.825L15.525 5.6H0ZM1.6 7.2H14.4V16.8H24V38.4H1.6V7.2ZM16 8.35L22.85 15.2H16V8.35ZM17.325 18.675C16.3 18.675 15.2781 19.0719 14.5 19.85L12.8 21.55C11.4375 22.9125 11.2781 25.025 12.3 26.575L12.175 26.7C11.5125 26.2594 10.7438 26.025 9.975 26.025C8.95 26.025 7.92812 26.4219 7.15 27.2L5.45 28.9C3.89375 30.4563 3.89375 32.9938 5.45 34.55C7.00625 36.1063 9.54375 36.1063 11.1 34.55L12.8 32.85C14.1625 31.4875 14.3219 29.375 13.3 27.825L13.425 27.7C14.975 28.7219 17.0875 28.5625 18.45 27.2L20.15 25.5C21.7063 23.9438 21.7063 21.4062 20.15 19.85C19.3719 19.0719 18.35 18.675 17.325 18.675ZM17.325 20.275C17.9375 20.275 18.5531 20.5031 19.025 20.975C19.9688 21.9188 19.9688 23.4313 19.025 24.375L17.325 26.075C16.5813 26.8188 15.4938 26.9531 14.6 26.525L16.75 24.375C17 24.1375 17.0719 23.7656 16.925 23.4531C16.775 23.1375 16.4438 22.9563 16.1 23C15.9188 23.025 15.75 23.1156 15.625 23.25L13.475 25.4C13.0469 24.5063 13.1813 23.4188 13.925 22.675L15.625 20.975C16.0969 20.5031 16.7125 20.275 17.325 20.275ZM9.975 27.625C10.3281 27.625 10.6719 27.7219 11 27.875L9.975 28.9C9.7375 29.0938 9.62813 29.4031 9.69688 29.7031C9.76562 30 10 30.2344 10.2969 30.3031C10.5969 30.3719 10.9063 30.2625 11.1 30.025L12.125 29C12.5531 29.8938 12.4188 30.9813 11.675 31.725L9.975 33.425C9.03125 34.3688 7.51875 34.3688 6.575 33.425C5.63125 32.4813 5.63125 30.9688 6.575 30.025L8.275 28.325C8.74688 27.8531 9.3625 27.625 9.975 27.625Z" fill="white"/>
</svg>
