<svg width="19" height="19" viewBox="0 0 19 19" fill="none" xmlns="http://www.w3.org/2000/svg">
<path d="M9.49977 0.759766C4.68023 0.759766 0.759766 4.68061 0.759766 9.49977C0.759766 14.3189 4.68023 18.2398 9.49977 18.2398C10.2218 18.2398 10.9228 18.1501 11.5942 17.9845C11.4293 17.7713 11.2825 17.5444 11.1571 17.3039C10.622 17.4175 10.0682 17.4798 9.49977 17.4798C5.09975 17.4798 1.51977 13.9002 1.51977 9.49977C1.51977 5.09937 5.09975 1.51977 9.49977 1.51977C13.8998 1.51977 17.4798 5.09937 17.4798 9.49977C17.4798 10.0682 17.4175 10.622 17.3039 11.1571C17.5444 11.2825 17.7713 11.4297 17.9845 11.5942C18.1501 10.9228 18.2398 10.2218 18.2398 9.49977C18.2398 4.68061 14.3193 0.759766 9.49977 0.759766ZM9.49383 2.65457C9.39318 2.65614 9.29726 2.69759 9.22713 2.7698C9.157 2.84202 9.11839 2.93911 9.11977 3.03977V8.42656C8.96942 8.47997 8.83196 8.56434 8.71628 8.67422C8.60059 8.7841 8.50926 8.91703 8.44819 9.06443C8.38712 9.21183 8.35767 9.3704 8.36174 9.5299C8.36581 9.6894 8.40332 9.84626 8.47184 9.99035L6.19109 12.2711C6.15462 12.3061 6.12551 12.348 6.10545 12.3945C6.08539 12.4409 6.07479 12.4908 6.07428 12.5414C6.07376 12.5919 6.08334 12.6421 6.10245 12.6889C6.12156 12.7357 6.14982 12.7782 6.18557 12.814C6.22132 12.8497 6.26384 12.878 6.31065 12.8971C6.35746 12.9162 6.40761 12.9258 6.45816 12.9253C6.50872 12.9247 6.55866 12.9141 6.60507 12.8941C6.65148 12.874 6.69342 12.8449 6.72844 12.8084L9.00844 10.5284C9.16186 10.6017 9.32974 10.6398 9.49977 10.6398C9.76863 10.6397 10.0288 10.5446 10.2344 10.3713C10.4399 10.1979 10.5776 9.95754 10.623 9.69255C10.6685 9.42756 10.6188 9.15503 10.4828 8.9231C10.3468 8.69117 10.1332 8.51478 9.87977 8.42508V3.03977C9.88046 2.98893 9.87095 2.93846 9.85179 2.89137C9.83263 2.84427 9.80422 2.80149 9.76823 2.76558C9.73224 2.72966 9.68942 2.70133 9.64228 2.68226C9.59515 2.66319 9.54467 2.65378 9.49383 2.65457ZM15.1998 11.3998C13.1098 11.3998 11.3998 13.1098 11.3998 15.1998C11.3998 17.2898 13.1098 18.9998 15.1998 18.9998C17.2898 18.9998 18.9998 17.2898 18.9998 15.1998C18.9998 13.1098 17.2898 11.3998 15.1998 11.3998ZM15.1998 12.1598C16.8718 12.1598 18.2398 13.5278 18.2398 15.1998C18.2398 16.8718 16.8718 18.2398 15.1998 18.2398C13.5278 18.2398 12.1598 16.8718 12.1598 15.1998C12.1598 13.5278 13.5278 12.1598 15.1998 12.1598ZM15.1998 12.9576C14.9718 12.9576 14.8198 13.1098 14.8198 13.2998V14.8198H13.3376C13.1096 14.8198 12.9576 14.9718 12.9576 15.1998C12.9576 15.4278 13.1096 15.5798 13.3376 15.5798H14.8198V17.0619C14.8198 17.2899 14.9718 17.4419 15.1998 17.4419C15.4278 17.4419 15.5798 17.2899 15.5798 17.0619V15.5798H17.0619C17.2899 15.5798 17.4419 15.4278 17.4419 15.1998C17.4419 14.9718 17.2898 14.8198 17.0998 14.8198H15.5798V13.3376C15.5798 13.1096 15.4278 12.9576 15.1998 12.9576Z" fill="white"/>
</svg>
