<svg width="15" height="12" viewBox="0 0 15 12" fill="none" xmlns="http://www.w3.org/2000/svg">
<path d="M1.36364 0C0.618366 0 0 0.604625 0 1.33333V10.6667C0 11.3954 0.618366 12 1.36364 12H13.6364C14.3816 12 15 11.3954 15 10.6667V2.66667C15 1.93796 14.3816 1.33333 13.6364 1.33333H8.60263L8.29901 0.738281L8.29767 0.736979C8.06749 0.287057 7.59361 0 7.07919 0H1.36364ZM1.36364 1.33333H7.07786L7.76101 2.66667H13.6364V10.6667H12.2727V10H10.9091V10.6667H4.09091V10H2.72727V10.6667H1.36364V1.33333ZM5.45455 3.33333C5.09289 3.33333 4.74604 3.47381 4.49031 3.72386C4.23458 3.97391 4.09091 4.31305 4.09091 4.66667C4.09091 5.02029 4.23458 5.35943 4.49031 5.60948C4.74604 5.85952 5.09289 6 5.45455 6C5.8162 6 6.16305 5.85952 6.41878 5.60948C6.67451 5.35943 6.81818 5.02029 6.81818 4.66667C6.81818 4.31305 6.67451 3.97391 6.41878 3.72386C6.16305 3.47381 5.8162 3.33333 5.45455 3.33333ZM9.54545 4.66667V6H12.2727V4.66667H9.54545ZM5.45455 6.66667C3.96477 6.66667 2.72727 7.27253 2.72727 8.14453V8.66667H8.18182V8.14453C8.18182 7.27253 6.94432 6.66667 5.45455 6.66667ZM9.54545 7.33333V8.66667H12.2727V7.33333H9.54545Z" fill="white"/>
</svg>
