<svg width="14" height="14" viewBox="0 0 14 14" fill="none" xmlns="http://www.w3.org/2000/svg">
<path d="M1.4 0C0.634856 0 0 0.634856 0 1.4V6.3C0 7.06514 0.634856 7.7 1.4 7.7H4.9C5.66514 7.7 6.3 7.06514 6.3 6.3V1.4C6.3 0.634856 5.66514 0 4.9 0H1.4ZM9.1 0C8.33486 0 7.7 0.634856 7.7 1.4V3.5C7.7 4.26514 8.33486 4.9 9.1 4.9H12.6C13.3651 4.9 14 4.26514 14 3.5V1.4C14 0.634856 13.3651 0 12.6 0H9.1ZM1.4 1.4H4.9V6.3H1.4V1.4ZM9.1 1.4H12.6V3.5H9.1V1.4ZM9.1 6.3C8.33486 6.3 7.7 6.93486 7.7 7.7V12.6C7.7 13.3651 8.33486 14 9.1 14H12.6C13.3651 14 14 13.3651 14 12.6V7.7C14 6.93486 13.3651 6.3 12.6 6.3H9.1ZM9.1 7.7H12.6V12.6H9.1V7.7ZM1.4 9.1C0.634856 9.1 0 9.73486 0 10.5V12.6C0 13.3651 0.634856 14 1.4 14H4.9C5.66514 14 6.3 13.3651 6.3 12.6V10.5C6.3 9.73486 5.66514 9.1 4.9 9.1H1.4ZM1.4 10.5H4.9V12.6H1.4V10.5Z" fill="white"/>
</svg>
