<svg width="20" height="20" viewBox="0 0 20 20" fill="none" xmlns="http://www.w3.org/2000/svg">
<path d="M0.799805 0.799805V15.9998H7.5998V19.1998H19.1998V8.6373L19.0873 8.5123L14.6873 4.1123L14.5623 3.9998H10.9748L7.8873 0.912305L7.7623 0.799805H0.799805ZM1.5998 1.5998H7.1998V5.9998H11.5998V15.1998H1.5998V1.5998ZM7.9998 2.1748L10.3998 4.5623V4.5748C10.4029 4.58262 10.4076 4.59199 10.4123 4.5998C10.4467 4.65605 10.4936 4.70293 10.5498 4.7373C10.5623 4.74668 10.5748 4.75449 10.5873 4.7623L11.0248 5.1998H7.9998V2.1748ZM11.7748 4.7998H13.9998V9.19981H18.3998V18.3998H8.3998V15.9998H12.3998V14.5748L13.3123 15.4873L13.8873 14.9123L12.5748 13.5998H16.3998V12.7998H12.5748L13.8873 11.4873L13.3123 10.9123L12.3998 11.8248V5.4373L12.2873 5.3123L11.7748 4.7998ZM14.7998 5.3748L17.8248 8.3998H14.7998V5.3748ZM7.0873 8.1123L6.5123 8.6873L7.8248 9.9998H3.9998V10.7998H7.8248L6.5123 12.1123L7.0873 12.6873L9.08731 10.6873L9.3623 10.3998L9.08731 10.1123L7.0873 8.1123Z" fill="#001DB6"/>
</svg>
