<svg width="12" height="16" viewBox="0 0 12 16" fill="none" xmlns="http://www.w3.org/2000/svg">
<path d="M0.75 1.25V0.75C0.473858 0.75 0.25 0.973858 0.25 1.25H0.75ZM11.25 14.75V15.25C11.5261 15.25 11.75 15.0261 11.75 14.75H11.25ZM0.75 14.75H0.25C0.25 15.0261 0.473858 15.25 0.75 15.25L0.75 14.75ZM7.5 1.25L7.85355 0.896447C7.75979 0.802678 7.63261 0.75 7.5 0.75V1.25ZM11.25 5H11.75C11.75 4.86739 11.6973 4.74021 11.6036 4.64645L11.25 5ZM6.5 7.25C6.5 6.97386 6.27614 6.75 6 6.75C5.72386 6.75 5.5 6.97386 5.5 7.25H6.5ZM5.5 11.75C5.5 12.0261 5.72386 12.25 6 12.25C6.27614 12.25 6.5 12.0261 6.5 11.75H5.5ZM3.75 9C3.47386 9 3.25 9.22386 3.25 9.5C3.25 9.77614 3.47386 10 3.75 10V9ZM8.25 10C8.52614 10 8.75 9.77614 8.75 9.5C8.75 9.22386 8.52614 9 8.25 9V10ZM11.25 14.25H0.75V15.25H11.25V14.25ZM1.25 14.75V1.25H0.25V14.75H1.25ZM0.75 1.75H7.5V0.75H0.75V1.75ZM10.75 5V14.75H11.75V5H10.75ZM7.14645 1.60355L10.8964 5.35355L11.6036 4.64645L7.85355 0.896447L7.14645 1.60355ZM6.25 1.25V4.25H7.25V1.25H6.25ZM8.25 6.25H11.25V5.25H8.25V6.25ZM6.25 4.25C6.25 5.35457 7.14543 6.25 8.25 6.25V5.25C7.69772 5.25 7.25 4.80228 7.25 4.25H6.25ZM5.5 7.25V11.75H6.5V7.25H5.5ZM3.75 10H8.25V9H3.75V10Z" fill="#E9B600"/>
</svg>
