<svg width="18" height="18" viewBox="0 0 18 18" fill="none" xmlns="http://www.w3.org/2000/svg">
<path d="M3.75 2.25V1.75C3.47386 1.75 3.25 1.97386 3.25 2.25H3.75ZM14.25 15.75V16.25C14.5261 16.25 14.75 16.0261 14.75 15.75H14.25ZM3.75 15.75H3.25C3.25 16.0261 3.47386 16.25 3.75 16.25V15.75ZM10.5 2.25L10.8536 1.89645C10.7598 1.80268 10.6326 1.75 10.5 1.75V2.25ZM14.25 6H14.75C14.75 5.86739 14.6973 5.74021 14.6036 5.64645L14.25 6ZM11.6036 9.35355C11.7989 9.15829 11.7989 8.84171 11.6036 8.64645C11.4084 8.45118 11.0918 8.45118 10.8965 8.64645L11.6036 9.35355ZM8.10006 12.15L7.74651 12.5036C7.94178 12.6988 8.25836 12.6988 8.45362 12.5036L8.10006 12.15ZM7.10358 10.4465C6.90831 10.2512 6.59173 10.2512 6.39647 10.4465C6.20121 10.6417 6.20121 10.9583 6.39648 11.1536L7.10358 10.4465ZM14.25 15.25H3.75V16.25H14.25V15.25ZM4.25 15.75V2.25H3.25V15.75H4.25ZM3.75 2.75H10.5V1.75H3.75V2.75ZM13.75 6V15.75H14.75V6H13.75ZM10.1464 2.60355L13.8964 6.35355L14.6036 5.64645L10.8536 1.89645L10.1464 2.60355ZM9.25 2.25V5.25H10.25V2.25H9.25ZM11.25 7.25H14.25V6.25H11.25V7.25ZM9.25 5.25C9.25 6.35457 10.1454 7.25 11.25 7.25V6.25C10.6977 6.25 10.25 5.80228 10.25 5.25H9.25ZM10.8965 8.64645L7.74651 11.7965L8.45362 12.5036L11.6036 9.35355L10.8965 8.64645ZM6.39648 11.1536L7.74651 12.5036L8.45361 11.7965L7.10358 10.4465L6.39648 11.1536Z" fill="#56AB00"/>
</svg>
