<svg width="21" height="21" viewBox="0 0 21 21" fill="none" xmlns="http://www.w3.org/2000/svg">
<path d="M1.3808 0C0.627661 0 0 0.628014 0 1.38158V4.69737C0 5.45093 0.627661 6.07895 1.3808 6.07895H4.69473C5.44787 6.07895 6.07553 5.45093 6.07553 4.69737V1.38158C6.07553 0.628014 5.44787 0 4.69473 0H1.3808ZM1.65696 1.65789H4.41857V4.42105H1.65696V1.65789ZM8.56098 2.21053C8.45119 2.20897 8.3422 2.22927 8.24032 2.27023C8.13844 2.31119 8.04572 2.372 7.96753 2.44913C7.88935 2.52626 7.82727 2.61817 7.78489 2.71951C7.74252 2.82086 7.7207 2.92962 7.7207 3.03947C7.7207 3.14933 7.74252 3.25809 7.78489 3.35944C7.82727 3.46078 7.88935 3.55269 7.96753 3.62982C8.04572 3.70695 8.13844 3.76776 8.24032 3.80872C8.3422 3.84968 8.45119 3.86997 8.56098 3.86842H20.1597C20.2695 3.86997 20.3785 3.84968 20.4804 3.80872C20.5823 3.76776 20.675 3.70695 20.7532 3.62982C20.8313 3.55269 20.8934 3.46078 20.9358 3.35944C20.9782 3.25809 21 3.14933 21 3.03947C21 2.92962 20.9782 2.82086 20.9358 2.71951C20.8934 2.61817 20.8313 2.52626 20.7532 2.44913C20.675 2.372 20.5823 2.31119 20.4804 2.27023C20.3785 2.22927 20.2695 2.20897 20.1597 2.21053H8.56098ZM1.3808 7.46053C0.627661 7.46053 0 8.08854 0 8.8421V12.1579C0 12.9115 0.627661 13.5395 1.3808 13.5395H4.69473C5.44787 13.5395 6.07553 12.9115 6.07553 12.1579V8.8421C6.07553 8.08854 5.44787 7.46053 4.69473 7.46053H1.3808ZM1.65696 9.11842H4.41857V11.8816H1.65696V9.11842ZM8.56098 9.67105C8.45119 9.6695 8.3422 9.68979 8.24032 9.73075C8.13844 9.77172 8.04572 9.83253 7.96753 9.90966C7.88935 9.98679 7.82727 10.0787 7.78489 10.18C7.74252 10.2814 7.7207 10.3901 7.7207 10.5C7.7207 10.6099 7.74252 10.7186 7.78489 10.82C7.82727 10.9213 7.88935 11.0132 7.96753 11.0903C8.04572 11.1675 8.13844 11.2283 8.24032 11.2692C8.3422 11.3102 8.45119 11.3305 8.56098 11.3289H20.1597C20.2695 11.3305 20.3785 11.3102 20.4804 11.2692C20.5823 11.2283 20.675 11.1675 20.7532 11.0903C20.8313 11.0132 20.8934 10.9213 20.9358 10.82C20.9782 10.7186 21 10.6099 21 10.5C21 10.3901 20.9782 10.2814 20.9358 10.18C20.8934 10.0787 20.8313 9.98679 20.7532 9.90966C20.675 9.83253 20.5823 9.77172 20.4804 9.73075C20.3785 9.68979 20.2695 9.6695 20.1597 9.67105H8.56098ZM1.3808 14.9211C0.627661 14.9211 0 15.5491 0 16.3026V19.6184C0 20.372 0.627661 21 1.3808 21H4.69473C5.44787 21 6.07553 20.372 6.07553 19.6184V16.3026C6.07553 15.5491 5.44787 14.9211 4.69473 14.9211H1.3808ZM1.65696 16.5789H4.41857V19.3421H1.65696V16.5789ZM8.56098 17.1316C8.45119 17.13 8.3422 17.1503 8.24032 17.1913C8.13844 17.2322 8.04572 17.2931 7.96753 17.3702C7.88935 17.4473 7.82727 17.5392 7.78489 17.6406C7.74252 17.7419 7.7207 17.8507 7.7207 17.9605C7.7207 18.0704 7.74252 18.1791 7.78489 18.2805C7.82727 18.3818 7.88935 18.4737 7.96753 18.5509C8.04572 18.628 8.13844 18.6888 8.24032 18.7298C8.3422 18.7707 8.45119 18.791 8.56098 18.7895H20.1597C20.2695 18.791 20.3785 18.7707 20.4804 18.7298C20.5823 18.6888 20.675 18.628 20.7532 18.5509C20.8313 18.4737 20.8934 18.3818 20.9358 18.2805C20.9782 18.1791 21 18.0704 21 17.9605C21 17.8507 20.9782 17.7419 20.9358 17.6406C20.8934 17.5392 20.8313 17.4473 20.7532 17.3702C20.675 17.2931 20.5823 17.2322 20.4804 17.1913C20.3785 17.1503 20.2695 17.13 20.1597 17.1316H8.56098Z" fill="#5469F1"/>
</svg>
