<svg width="30" height="35" viewBox="0 0 30 35" fill="none" xmlns="http://www.w3.org/2000/svg">
<path d="M27.266 35C27.9076 32.9672 30 25.8854 30 23.2758V14.2137C30 12.9925 29.0008 11.999 27.7727 11.999C26.545 11.999 25.5458 12.9925 25.5458 14.2137V18.0778C25.5458 18.3049 25.3578 18.4894 25.1266 18.4894C24.8953 18.4894 24.7074 18.3049 24.7074 18.0778V12.0391C24.7074 10.8183 23.708 9.82487 22.4798 9.82487C21.2518 9.82487 20.2527 10.8183 20.2527 12.0391V16.3443C20.2527 16.5714 20.0646 16.7558 19.8335 16.7558C19.6024 16.7558 19.4145 16.5713 19.4145 16.3443V10.3061C19.4145 9.08551 18.4153 8.09254 17.1872 8.09254C15.9593 8.09254 14.9603 9.08551 14.9603 10.3061V14.6124C14.9603 14.8392 14.772 15.024 14.541 15.024C14.3097 15.024 14.1218 14.8392 14.1218 14.6124V2.21407C14.1219 0.993081 13.1225 0 11.8943 0C10.6662 0 9.66685 0.993081 9.66685 2.21407V21.4125C9.66685 21.5832 9.55774 21.7379 9.39485 21.7979C9.2334 21.8573 9.04458 21.8101 8.9321 21.6831L3.71516 15.8245L3.65394 15.7621C3.23585 15.3737 2.68727 15.1583 2.10989 15.1551H2.09501C1.49446 15.162 0.939169 15.3863 0.531522 15.7875C0.0177613 16.2922 -0.384844 17.2568 0.617829 18.9877C2.14038 21.6129 3.80446 24.1029 5.27876 26.3085C6.37483 27.9489 7.41027 29.498 8.18223 30.8047C8.6757 31.6409 9.70515 33.8365 10.2744 34.9999H27.266V35Z" fill="white"/>
</svg>
