<svg width="18" height="16" viewBox="0 0 18 16" fill="none" xmlns="http://www.w3.org/2000/svg">
<path d="M8.75 0C4.89437 0 1.75 3.14437 1.75 7V7.875C0.7875 7.875 0 8.6625 0 9.625V11.375C0 12.3375 0.7875 13.125 1.75 13.125H3.5V8.75V7.875V7C3.5 4.09013 5.84013 1.75 8.75 1.75C11.6599 1.75 14 4.09013 14 7V7.875V8.75V13.125V14H10.4231C10.3327 13.7444 10.1654 13.5231 9.94418 13.3664C9.72294 13.2097 9.4586 13.1254 9.1875 13.125C8.8394 13.125 8.50556 13.2633 8.25942 13.5094C8.01328 13.7556 7.875 14.0894 7.875 14.4375C7.87544 14.769 8.00133 15.0881 8.22736 15.3306C8.4534 15.5731 8.76283 15.7211 9.09351 15.7449C9.12472 15.7483 9.1561 15.75 9.1875 15.75H14C14.9564 15.75 15.75 14.9564 15.75 14V13.125C16.7125 13.125 17.5 12.3375 17.5 11.375V9.625C17.5 8.6625 16.7125 7.875 15.75 7.875V7C15.75 3.14437 12.6056 0 8.75 0Z" fill="#E15F35"/>
</svg>
