<svg width="14" height="14" viewBox="0 0 14 14" fill="none" xmlns="http://www.w3.org/2000/svg">
<path d="M6.25 10.3333C6.25 10.7475 6.58579 11.0833 7 11.0833C7.41421 11.0833 7.75 10.7475 7.75 10.3333H6.25ZM7.75 5.66667C7.75 5.25245 7.41421 4.91667 7 4.91667C6.58579 4.91667 6.25 5.25245 6.25 5.66667L7.75 5.66667ZM6.25 3.67331C6.25 4.08752 6.58579 4.42331 7 4.42331C7.41421 4.42331 7.75 4.08752 7.75 3.67331H6.25ZM7.75 3.66665C7.75 3.25243 7.41421 2.91665 7 2.91665C6.58579 2.91665 6.25 3.25243 6.25 3.66665H7.75ZM7.75 10.3333L7.75 5.66667L6.25 5.66667L6.25 10.3333H7.75ZM7.75 3.67331V3.66665H6.25V3.67331H7.75ZM12.25 7C12.25 9.8995 9.8995 12.25 7 12.25V13.75C10.7279 13.75 13.75 10.7279 13.75 7H12.25ZM7 12.25C4.10051 12.25 1.75 9.8995 1.75 7H0.25C0.25 10.7279 3.27208 13.75 7 13.75V12.25ZM1.75 7C1.75 4.10051 4.10051 1.75 7 1.75V0.25C3.27208 0.25 0.25 3.27208 0.25 7H1.75ZM7 1.75C9.8995 1.75 12.25 4.10051 12.25 7H13.75C13.75 3.27208 10.7279 0.25 7 0.25V1.75Z" fill="#5469F1"/>
</svg>
