<svg width="58" height="47" viewBox="0 0 58 47" fill="none" xmlns="http://www.w3.org/2000/svg">
<path d="M0.890015 16.187L27.3402 0.477253C28.4129 -0.162097 29.8963 -0.162097 30.9689 0.49552L57.0311 16.187H0.890015Z" fill="#FFD100"/>
<path d="M56.0726 46.3835H1.84855C0.821577 46.3835 0 45.7259 0 44.9039V17.4484C0 16.6264 0.821577 15.9688 1.84855 15.9688H56.0498C57.0767 15.9688 57.8983 16.6264 57.8983 17.4484V44.9039C57.8983 45.7259 57.0767 46.3835 56.0726 46.3835Z" fill="#FFD100"/>
<path d="M55.2968 17.9961L49.2034 21.7591L49.1121 21.8139L44.1826 24.8645L40.6225 27.0749L33.2054 31.6782L31.7677 32.5733L30.9689 32.1896C29.7365 31.5868 28.1619 31.5868 26.9295 32.2079L26.1307 32.5915L24.8755 31.8243L17.2075 27.0931L13.6245 24.8828L8.6722 21.8322L7.75933 21.2659L2.46472 17.9961H55.2968Z" fill="#F3F3F3"/>
<path d="M55.8672 44.3375L31.7676 32.5552L30.9689 32.1716C29.7365 31.5688 28.1618 31.5688 26.9294 32.1899L26.1307 32.5735L2.46472 44.3375L24.8983 31.8063L26.861 30.7102C28.2303 29.9065 30.1016 29.9065 31.4481 30.7102L33.1826 31.6784L55.8672 44.3375Z" fill="#DA9135"/>
<path d="M55.2968 4.22266H2.46472V17.9961H55.2968V4.22266Z" fill="#F3F3F3"/>
<path d="M49.2034 9.0625H7.75928V11.2728H49.2034V9.0625Z" fill="#808080"/>
<path d="M49.2034 14.3418H7.75928V16.5521H49.2034V14.3418Z" fill="#808080"/>
<path d="M49.2034 19.6035V21.759L49.1349 21.8138H8.67214L7.75928 21.2476V19.6035H49.2034Z" fill="#808080"/>
<path d="M44.1826 24.8633L40.6225 27.0736H17.2303L13.6245 24.8633H44.1826Z" fill="#808080"/>
</svg>
