<svg width="15" height="12" viewBox="0 0 15 12" fill="none" xmlns="http://www.w3.org/2000/svg">
<path d="M1.36364 0C0.618366 0 0 0.604625 0 1.33333V10.6667C0 11.3954 0.618366 12 1.36364 12H13.6364C14.3816 12 15 11.3954 15 10.6667V1.33333C15 0.604625 14.3816 0 13.6364 0H1.36364ZM1.36364 1.33333H13.6364V2.66667H1.36364V1.33333ZM1.36364 4H6.81818V10.6667H1.36364V4ZM8.18182 4H13.6364V10.6667H8.18182V4ZM2.72727 5.33333V6.66667H5.45455V5.33333H2.72727ZM9.54545 5.33333V6.66667H12.2727V5.33333H9.54545ZM2.72727 8V9.33333H4.77273V8H2.72727ZM9.54545 8V9.33333H11.5909V8H9.54545Z" fill="white"/>
</svg>
