<svg width="21" height="21" viewBox="0 0 21 21" fill="none" xmlns="http://www.w3.org/2000/svg">
<path d="M3.5 14L2.96967 13.4697C2.82902 13.6103 2.75 13.8011 2.75 14H3.5ZM14.875 2.625L15.4053 2.09467C15.1124 1.80178 14.6376 1.80178 14.3447 2.09467L14.875 2.625ZM18.375 6.125L18.9053 6.65533C19.1982 6.36244 19.1982 5.88756 18.9053 5.59467L18.375 6.125ZM7 17.5V18.25C7.19891 18.25 7.38968 18.171 7.53033 18.0303L7 17.5ZM3.5 17.5H2.75C2.75 17.9142 3.08579 18.25 3.5 18.25V17.5ZM10.5 16.75C10.0858 16.75 9.75 17.0858 9.75 17.5C9.75 17.9142 10.0858 18.25 10.5 18.25V16.75ZM17.9375 18.25C18.3517 18.25 18.6875 17.9142 18.6875 17.5C18.6875 17.0858 18.3517 16.75 17.9375 16.75V18.25ZM4.03033 14.5303L15.4053 3.15533L14.3447 2.09467L2.96967 13.4697L4.03033 14.5303ZM14.3447 3.15533L17.8447 6.65533L18.9053 5.59467L15.4053 2.09467L14.3447 3.15533ZM17.8447 5.59467L6.46967 16.9697L7.53033 18.0303L18.9053 6.65533L17.8447 5.59467ZM7 16.75H3.5V18.25H7V16.75ZM4.25 17.5V14H2.75V17.5H4.25ZM11.7197 5.78033L15.2197 9.28033L16.2803 8.21967L12.7803 4.71967L11.7197 5.78033ZM10.5 18.25H17.9375V16.75H10.5V18.25Z" fill="white"/>
</svg>
