<svg width="82" height="82" viewBox="0 0 82 82" fill="none" xmlns="http://www.w3.org/2000/svg">
<path d="M41 0.375C18.6001 0.375 0.375 18.6001 0.375 41C0.375 63.3999 18.6001 81.625 41 81.625C63.3999 81.625 81.625 63.3999 81.625 41C81.625 18.6001 63.3999 0.375 41 0.375ZM41 6.625C60.0186 6.625 75.375 21.9814 75.375 41C75.375 60.0186 60.0186 75.375 41 75.375C21.9814 75.375 6.625 60.0186 6.625 41C6.625 21.9814 21.9814 6.625 41 6.625ZM37.875 22.25V37.875H22.25V44.125H37.875V59.75H44.125V44.125H59.75V37.875H44.125V22.25H37.875Z" fill="white"/>
</svg>
