<svg width="33" height="33" viewBox="0 0 33 33" fill="none" xmlns="http://www.w3.org/2000/svg">
<path d="M17.5 11C17.5 10.4477 17.0523 10 16.5 10C15.9477 10 15.5 10.4477 15.5 11H17.5ZM15.5 22C15.5 22.5523 15.9477 23 16.5 23C17.0523 23 17.5 22.5523 17.5 22H15.5ZM11 15.5C10.4477 15.5 10 15.9477 10 16.5C10 17.0523 10.4477 17.5 11 17.5V15.5ZM22 17.5C22.5523 17.5 23 17.0523 23 16.5C23 15.9477 22.5523 15.5 22 15.5V17.5ZM15.5 11V22H17.5V11H15.5ZM11 17.5H22V15.5H11V17.5ZM27.875 16.5C27.875 22.7822 22.7822 27.875 16.5 27.875V29.875C23.8868 29.875 29.875 23.8868 29.875 16.5H27.875ZM16.5 27.875C10.2178 27.875 5.125 22.7822 5.125 16.5H3.125C3.125 23.8868 9.11319 29.875 16.5 29.875V27.875ZM5.125 16.5C5.125 10.2178 10.2178 5.125 16.5 5.125V3.125C9.11319 3.125 3.125 9.11319 3.125 16.5H5.125ZM16.5 5.125C22.7822 5.125 27.875 10.2178 27.875 16.5H29.875C29.875 9.11319 23.8868 3.125 16.5 3.125V5.125Z" fill="#5469F1"/>
</svg>
