<svg width="31" height="46" viewBox="0 0 31 46" fill="none" xmlns="http://www.w3.org/2000/svg">
<path d="M28.266 46C28.9076 43.9672 31 36.8854 31 34.2758V25.2137C31 23.9925 30.0008 22.999 28.7727 22.999C27.545 22.999 26.5458 23.9925 26.5458 25.2137V29.0778C26.5458 29.3049 26.3578 29.4894 26.1266 29.4894C25.8953 29.4894 25.7074 29.3049 25.7074 29.0778V23.0391C25.7074 21.8183 24.708 20.8249 23.4798 20.8249C22.2518 20.8249 21.2527 21.8183 21.2527 23.0391V27.3443C21.2527 27.5714 21.0646 27.7558 20.8335 27.7558C20.6024 27.7558 20.4145 27.5713 20.4145 27.3443V21.3061C20.4145 20.0855 19.4153 19.0925 18.1872 19.0925C16.9593 19.0925 15.9603 20.0855 15.9603 21.3061V25.6124C15.9603 25.8392 15.772 26.024 15.541 26.024C15.3097 26.024 15.1218 25.8392 15.1218 25.6124V13.2141C15.1219 11.9931 14.1225 11 12.8943 11C11.6662 11 10.6669 11.9931 10.6669 13.2141V32.4125C10.6669 32.5832 10.5577 32.7379 10.3948 32.7979C10.2334 32.8573 10.0446 32.8101 9.9321 32.6831L4.71516 26.8245L4.65394 26.7621C4.23585 26.3737 3.68727 26.1583 3.10989 26.1551H3.09501C2.49446 26.162 1.93917 26.3863 1.53152 26.7875C1.01776 27.2922 0.615156 28.2568 1.61783 29.9877C3.14038 32.6129 4.80446 35.1029 6.27876 37.3085C7.37483 38.9489 8.41027 40.498 9.18223 41.8047C9.6757 42.6409 10.7051 44.8365 11.2744 45.9999H28.266V46Z" fill="white"/>
<path d="M11.6423 1.13019L8.47266 2.04004L10.4652 8.98171L13.6349 8.07186L11.6423 1.13019Z" fill="white"/>
<path d="M1.99406 7.17776L0.390625 10.0596L6.70182 13.5711L8.30525 10.6893L1.99406 7.17776Z" fill="white"/>
<path d="M23.3397 5.61321L20.7227 3.60645L16.3278 9.33773L18.9449 11.3445L23.3397 5.61321Z" fill="white"/>
</svg>
