<svg width="37" height="37" viewBox="0 0 37 37" fill="none" xmlns="http://www.w3.org/2000/svg">
<path d="M33.5858 36.4142C34.3668 37.1953 35.6332 37.1953 36.4142 36.4142C37.1953 35.6332 37.1953 34.3668 36.4142 33.5858L33.5858 36.4142ZM27.1765 15.5882C27.1765 21.9882 21.9882 27.1765 15.5882 27.1765V31.1765C24.1974 31.1765 31.1765 24.1974 31.1765 15.5882H27.1765ZM15.5882 27.1765C9.18823 27.1765 4 21.9882 4 15.5882H0C0 24.1974 6.97909 31.1765 15.5882 31.1765V27.1765ZM4 15.5882C4 9.18823 9.18823 4 15.5882 4V0C6.97909 0 0 6.97909 0 15.5882H4ZM15.5882 4C21.9882 4 27.1765 9.18823 27.1765 15.5882H31.1765C31.1765 6.97909 24.1974 0 15.5882 0V4ZM36.4142 33.5858L26.7083 23.8799L23.8799 26.7083L33.5858 36.4142L36.4142 33.5858Z" fill="#6C5DD3"/>
</svg>
