<svg width="14" height="18" viewBox="0 0 14 18" fill="none" xmlns="http://www.w3.org/2000/svg">
<path d="M0 0V18H14V17.6087V4.92493L9.10547 0H0ZM0.777778 0.782609H8.55556V5.47826H13.2222V17.2174H0.777778V0.782609ZM9.33333 1.33594L12.6723 4.69565H9.33333V1.33594ZM7.77778 6.26087C7.67464 6.26088 7.57573 6.30211 7.5028 6.37549C7.42987 6.44887 7.3889 6.5484 7.38889 6.65217V10.1739C7.3889 10.2777 7.42987 10.3772 7.5028 10.4506C7.57573 10.524 7.67464 10.5652 7.77778 10.5652H11.2778C11.3809 10.5652 11.4798 10.524 11.5528 10.4506C11.6257 10.3772 11.6667 10.2777 11.6667 10.1739C11.6667 8.0173 9.92107 6.26087 7.77778 6.26087ZM8.16667 7.1222C9.56272 7.30449 10.6295 8.37788 10.8107 9.78261H8.16667V7.1222ZM6.22222 7.82609C4.07893 7.82609 2.33333 9.58252 2.33333 11.7391C2.33333 13.8957 4.07893 15.6522 6.22222 15.6522C8.36552 15.6522 10.1111 13.8957 10.1111 11.7391C10.1111 11.6354 10.0701 11.5358 9.9972 11.4624C9.92427 11.3891 9.82536 11.3478 9.72222 11.3478H6.61111V8.21739C6.6111 8.11361 6.57013 8.01409 6.4972 7.94071C6.42427 7.86733 6.32536 7.8261 6.22222 7.82609ZM5.83333 8.68742V11.7391C5.83334 11.8429 5.87432 11.9424 5.94725 12.0158C6.02018 12.0892 6.11909 12.1304 6.22222 12.1304H9.2551C9.05664 13.6692 7.80715 14.8696 6.22222 14.8696C4.49919 14.8696 3.11111 13.4729 3.11111 11.7391C3.11111 10.1444 4.30402 8.8871 5.83333 8.68742Z" fill="white"/>
</svg>
