<svg width="22" height="19" viewBox="0 0 22 19" fill="none" xmlns="http://www.w3.org/2000/svg">
<path d="M4.58333 0C2.05242 0 0 2.05242 0 4.58333C0 7.11425 2.05242 9.16667 4.58333 9.16667H8.25V7.33333H4.58333C3.06442 7.33333 1.83333 6.10225 1.83333 4.58333C1.83333 3.06442 3.06442 1.83333 4.58333 1.83333H8.25V0H4.58333ZM11.9167 0V1.83333H15.5833C17.1023 1.83333 18.3333 3.06442 18.3333 4.58333C18.3333 6.10225 17.1023 7.33333 15.5833 7.33333H11.9167V9.16667H15.5833C18.1143 9.16667 20.1667 7.11425 20.1667 4.58333C20.1667 2.05242 18.1143 0 15.5833 0H11.9167ZM5.5 3.66667V5.5H14.6667V3.66667H5.5ZM15.0462 11L13.75 12.2962L16.1204 14.6667L13.7482 17.0389L15.0444 18.3351L17.4167 15.9629L19.7871 18.3333L21.0833 17.0371L18.7129 14.6667L21.0046 12.375L19.7083 11.0788L17.4167 13.3704L15.0462 11Z" fill="white"/>
</svg>
