<svg width="24" height="16" viewBox="0 0 24 16" fill="none" xmlns="http://www.w3.org/2000/svg">
<path d="M7.20005 0C4.99135 0 3.20024 1.7912 3.20024 4V4.8C3.20024 7.0088 4.99135 8.8 7.20005 8.8C9.40875 8.8 11.1999 7.0088 11.1999 4.8V4C11.1999 1.7912 9.40875 0 7.20005 0ZM16.7996 0C14.5909 0 12.7998 1.7912 12.7998 4V4.8C12.7998 7.0088 14.5909 8.8 16.7996 8.8C19.0083 8.8 20.7994 7.0088 20.7994 4.8V4C20.7994 1.7912 19.0083 0 16.7996 0ZM16.7996 1.6C18.1227 1.6 19.1995 2.6768 19.1995 4V4.8C19.1995 6.1232 18.1227 7.2 16.7996 7.2C15.4765 7.2 14.3997 6.1232 14.3997 4.8V4C14.3997 2.6768 15.4765 1.6 16.7996 1.6ZM7.19849 10.4C4.57621 10.4 1.21208 11.8993 0.244125 13.5312C-0.353447 14.5393 0.215651 16 1.19721 16H10.7968H13.2029H22.8024C23.784 16 24.3539 14.5393 23.7555 13.5312C22.7868 11.8993 19.4203 10.4 16.798 10.4C15.2378 10.4 13.4245 10.9373 11.9998 11.7109C10.5748 10.9369 8.75917 10.4 7.19849 10.4ZM16.798 12C19.0139 12 21.7655 13.3125 22.379 14.3469C22.3878 14.3613 22.3915 14.38 22.3947 14.4H14.3935C14.3861 14.1022 14.3145 13.8009 14.1544 13.5312C13.9969 13.2657 13.7582 13.0073 13.4873 12.7547C14.5124 12.3144 15.7172 12 16.798 12Z" fill="white"/>
</svg>
