<svg width="14" height="14" viewBox="0 0 14 14" fill="none" xmlns="http://www.w3.org/2000/svg">
<path d="M11.4643 14C11.4594 14 11.4544 14 11.4494 14C9.05791 13.9217 6.25622 11.6038 4.32586 9.67241C2.39302 7.74103 0.0748504 4.93841 0.0002712 2.55836C-0.0270743 1.72317 2.02261 0.237964 2.04374 0.22305C2.57574 -0.147319 3.16616 -0.015577 3.40854 0.319991C3.57261 0.547432 5.12635 2.90138 5.29539 3.1686C5.47065 3.44575 5.44455 3.85837 5.22578 4.27224C5.10522 4.50217 4.70497 5.20562 4.51728 5.53373C4.71989 5.82207 5.25562 6.52925 6.36187 7.63538C7.46937 8.74152 8.17539 9.27843 8.46501 9.48101C8.79315 9.29334 9.49668 8.89314 9.72664 8.77259C10.1343 8.55633 10.5445 8.52899 10.8242 8.7005C11.1101 8.87575 13.4581 10.4368 13.6744 10.5871C13.8558 10.7152 13.9727 10.9339 13.9963 11.1887C14.0187 11.446 13.9391 11.7181 13.7738 11.9555C13.7601 11.9754 12.2922 14 11.4643 14Z" fill="#fff"/>
</svg>
