<svg width="16" height="12" viewBox="0 0 16 12" fill="none" xmlns="http://www.w3.org/2000/svg">
<path d="M1.5 0C1.10218 0 0.720644 0.158035 0.43934 0.43934C0.158035 0.720644 0 1.10218 0 1.5L0 3.5H6C6.13261 3.5 6.25979 3.55268 6.35355 3.64645C6.44732 3.74021 6.5 3.86739 6.5 4C6.5 4.253 6.58 4.644 6.806 4.958C7.013 5.246 7.363 5.5 8 5.5C8.637 5.5 8.987 5.246 9.194 4.958C9.42 4.644 9.5 4.253 9.5 4C9.5 3.86739 9.55268 3.74021 9.64645 3.64645C9.74021 3.55268 9.86739 3.5 10 3.5H16V1.5C16 1.10218 15.842 0.720644 15.5607 0.43934C15.2794 0.158035 14.8978 0 14.5 0H1.5Z" fill="#5469F1"/>
<path d="M16 4.5H10.449C10.3773 4.87494 10.2262 5.23021 10.006 5.542C9.613 6.088 8.963 6.5 8 6.5C7.037 6.5 6.387 6.088 5.994 5.542C5.77378 5.23019 5.62274 4.87493 5.551 4.5H0V10.5C0 10.8978 0.158035 11.2794 0.43934 11.5607C0.720644 11.842 1.10218 12 1.5 12H14.5C14.8978 12 15.2794 11.842 15.5607 11.5607C15.842 11.2794 16 10.8978 16 10.5V4.5Z" fill="#5469F1"/>
</svg>
