<svg width="18" height="18" viewBox="0 0 18 18" fill="none" xmlns="http://www.w3.org/2000/svg">
<path d="M9 0C4.03711 0 0 4.03711 0 9C0 13.9629 4.03711 18 9 18C13.9629 18 18 13.9629 18 9C18 4.03711 13.9629 0 9 0ZM9 1.5C10.4766 1.5 11.8477 1.93945 13.0078 2.67188L12.3984 2.74219L12.5391 4.24219L11.7422 3.89062L11.0859 4.45312L11.2031 6L12.8203 5.48438L14.8359 6.14062L14.3203 7.07812L13.1016 6.32812L11.7891 6.51562L10.5 7.47656L9.77344 9.72656L11.2266 10.9219C11.2266 10.9219 12.7178 10.6641 12.7969 10.6641C12.876 10.6641 13.4297 12.0234 13.4297 12.0234L12.2344 15.7734C11.2588 16.2393 10.1572 16.5 9 16.5C8.7627 16.5 8.52832 16.4736 8.29688 16.4531L7.47656 15.0234L8.27344 12.0234L5.25 9.75H2.46094L1.73438 8.27344L3.75 6.67969L6.75 5.25L6.30469 3.25781L7.59375 2.97656L8.20312 3.82031L10.4531 3.39844L10.0547 1.66406L8.39062 1.54688C8.58984 1.53223 8.79492 1.5 9 1.5ZM8.15625 1.54688L6.98438 2.03906L6.42188 1.94531C6.97559 1.74316 7.5498 1.61426 8.15625 1.54688ZM1.54688 9.58594L2.27344 10.4297V11.9766L3.67969 13.5234H4.54688L6.67969 16.1484C3.84961 15.2314 1.78418 12.668 1.54688 9.58594Z" fill="#5469F1"/>
</svg>
