<svg width="40" height="40" viewBox="0 0 40 40" fill="none" xmlns="http://www.w3.org/2000/svg">
<circle cx="20" cy="20" r="20" fill="white"/>
<path d="M32.221 28.6812C31.5428 29.0173 31.2677 29.8478 31.5997 30.5294C31.5997 30.5294 31.5997 30.5342 31.6044 30.5342C30.7318 31.2735 29.7643 31.9168 28.7019 32.4449C21.5215 36.0213 12.8376 33.0257 9.30432 25.7577C5.77102 18.4897 8.73046 9.6999 15.9109 6.1235C16.9732 5.59544 18.0735 5.2114 19.1786 4.96177C19.1833 4.97137 19.1881 4.98097 19.1928 4.99058C19.5248 5.67705 20.3453 5.95548 21.0188 5.61945C21.697 5.28341 21.9768 4.45292 21.64 3.77124C21.3081 3.08476 20.4876 2.80633 19.8141 3.14237C19.3873 3.35359 19.1217 3.76164 19.0648 4.20329C17.2815 4.39531 15.503 4.90417 13.8004 5.74906C5.99393 9.6327 2.78313 19.1906 6.61996 27.0923C10.4615 34.9939 19.8995 38.2439 27.7059 34.3603C29.4038 33.5154 30.8835 32.4017 32.1214 31.0959C32.5055 31.3311 32.9988 31.3743 33.4304 31.1583C34.1086 30.8223 34.3836 29.9918 34.0517 29.3101C33.7149 28.6284 32.8944 28.3452 32.221 28.6812Z" fill="#79A429"/>
<path d="M23.5974 30.1501C23.0395 29.9264 22.4034 30.1786 22.1685 30.7212V30.7259C21.2731 30.5879 20.3776 30.35 19.5018 29.993C13.5908 27.5992 10.7968 20.9937 13.263 15.2448C15.7242 9.49589 22.5111 6.77848 28.422 9.17227C29.2979 9.5292 30.1053 9.97655 30.8344 10.5C30.8295 10.5096 30.8246 10.5143 30.8246 10.5238C30.5946 11.0664 30.8539 11.6898 31.4117 11.9135C31.9696 12.1371 32.6106 11.8849 32.8405 11.3424C33.0705 10.7999 32.8112 10.1764 32.2534 9.95275C31.9011 9.80998 31.5194 9.86233 31.2258 10.0527C30.1689 9.10565 28.9309 8.32041 27.5315 7.75408C21.1067 5.15089 13.7278 8.10149 11.0513 14.3501C8.3747 20.5987 11.4085 27.7753 17.8332 30.3785C19.2326 30.9448 20.6712 31.2494 22.1049 31.3113C22.1685 31.6539 22.4034 31.9633 22.7606 32.1108C23.3184 32.3345 23.9594 32.0822 24.1894 31.5397C24.4194 30.9972 24.1552 30.3737 23.5974 30.1501Z" fill="#2088D2"/>
<path d="M19.5504 3.14412C19.1277 3.35888 18.8647 3.77376 18.8083 4.2228C17.0424 4.41804 15.2811 4.93541 13.595 5.79445C8.69162 8.30323 5.61997 13.1304 5 18.3725C5.83602 18.7874 6.72839 19.1681 7.67243 19.5C7.69122 14.0139 10.6314 8.75227 15.685 6.1654C16.7371 5.6285 17.8267 5.23803 18.9211 4.98422C18.9258 4.99398 18.9305 5.00374 18.9352 5.01351C19.2639 5.71147 20.0765 5.99457 20.7434 5.6529C21.415 5.31124 21.6921 4.46685 21.3587 3.77376C21.0299 3.09043 20.222 2.80246 19.5504 3.14412Z" fill="#C4D800"/>
<path d="M32.2533 10.0739C31.9009 9.92564 31.5192 9.98 31.2256 10.1777C30.1686 9.19417 28.9305 8.37868 27.5308 7.79054C21.1054 5.08707 13.7257 8.15133 11.0488 14.6406C10.2903 16.4841 9.99174 18.4018 10.0994 20.27C10.8433 20.4627 11.6067 20.6258 12.3897 20.7692C12.2869 19.0443 12.5609 17.2749 13.2607 15.5698C15.7223 9.59944 22.5099 6.77736 28.4215 9.26336C29.2975 9.63404 30.1049 10.0986 30.8341 10.6423C30.8292 10.6522 30.8243 10.6571 30.8243 10.667C30.5943 11.2304 30.8537 11.8779 31.4116 12.1102C31.9695 12.3424 32.6105 12.0805 32.8405 11.5171C33.0705 10.9536 32.8112 10.3062 32.2533 10.0739Z" fill="#7AC8F6"/>
<path d="M31.6493 22.8297C31.3966 23.6913 31.0199 24.4566 30.5094 25.1305C29.9988 25.8043 29.3694 26.3916 28.616 26.897C27.8626 27.4024 27.0795 27.7778 26.2617 28.0185C25.4439 28.2591 24.5914 28.3843 23.7042 28.3843C23.6645 28.3843 23.6199 28.3843 23.5753 28.3843C23.5257 28.3843 23.4861 28.3843 23.4464 28.3843C23.4266 28.3843 23.4018 28.3843 23.3721 28.3843C23.3423 28.3843 23.3176 28.3843 23.2977 28.3843C23.2779 28.365 23.2581 28.3554 23.2383 28.3554C23.2184 28.3554 23.1986 28.3554 23.1788 28.3554C22.6782 28.3361 22.1825 28.2736 21.6918 28.1581C21.2012 28.0473 20.7154 27.8981 20.2347 27.7104C19.7539 27.5034 19.3028 27.2724 18.8915 27.0077C18.4751 26.7478 18.0984 26.4445 17.7515 26.1076C17.3302 25.7129 16.9485 25.2845 16.6115 24.8176C16.2745 24.3507 16.0018 23.855 15.7887 23.3303C15.5756 22.8057 15.417 22.2714 15.3129 21.7323C15.2039 21.1884 15.1543 20.63 15.1543 20.0476C15.1543 18.9069 15.3674 17.8528 15.7887 16.8901C16.21 15.9274 16.8395 15.0514 17.6672 14.2669C18.5148 13.4823 19.4367 12.8854 20.428 12.4859C21.4192 12.0864 22.5047 11.8843 23.6794 11.8843C24.5666 11.8843 25.4191 12.0142 26.2369 12.279C27.0547 12.5389 27.8478 12.9336 28.621 13.4582C29.3892 13.9829 30.0286 14.5845 30.5292 15.268C31.0298 15.9515 31.4065 16.712 31.6543 17.5543L27.3224 17.4966C27.1092 17.1789 26.8763 16.8997 26.6136 16.6543C26.3559 16.4136 26.0684 16.2066 25.7611 16.0382C25.4538 15.8697 25.1217 15.7445 24.7648 15.6579C24.408 15.5761 24.0263 15.5328 23.6249 15.5328C22.931 15.5328 22.3114 15.6435 21.7612 15.8697C21.2111 16.0959 20.7154 16.4232 20.2743 16.8516C19.848 17.2992 19.5308 17.7902 19.3227 18.3245C19.1095 18.8588 19.0055 19.4508 19.0055 20.1054C19.0055 20.7985 19.1145 21.4242 19.3375 21.9874C19.5606 22.5506 19.9026 23.0463 20.3635 23.4747C20.8046 23.9223 21.3152 24.2545 21.8951 24.4711C22.475 24.6877 23.1193 24.7936 23.833 24.7936C24.18 24.7936 24.522 24.7502 24.859 24.6684C25.1961 24.5818 25.5182 24.4566 25.8255 24.2882C26.1526 24.1197 26.4352 23.9175 26.678 23.6865C26.9209 23.4506 27.134 23.1859 27.3273 22.8875V22.8297H31.6493Z" fill="#1A1818"/>
</svg>
