<svg width="114" height="114" viewBox="0 0 114 114" fill="none" xmlns="http://www.w3.org/2000/svg">
<mask id="mask0_10944_39695" style="mask-type:alpha" maskUnits="userSpaceOnUse" x="0" y="0" width="114" height="114">
<path d="M57 114C88.4802 114 114 88.4802 114 57C114 25.5198 88.4802 0 57 0C25.5198 0 0 25.5198 0 57C0 88.4802 25.5198 114 57 114Z" fill="#FBEFEA"/>
</mask>
<g mask="url(#mask0_10944_39695)">
<path d="M60.1197 20.591C60.1197 20.591 64.115 17.2532 66.7037 21.2985C69.3006 25.3438 67.1115 30.5294 66.3374 32.5853C65.5634 34.6412 63.2744 44.9042 63.2744 44.9042C63.2744 44.9042 62.8166 46.6272 59.4622 48.9162C56.1077 51.2052 56.7154 44.7627 56.7154 44.7627L60.1197 20.591Z" fill="#242374"/>
<path d="M1.6655 157.406L20.2438 157.639L21.3258 157.648L79.8158 158.372L85.867 158.447L111.046 158.755C111.046 158.755 110.996 157.498 110.879 155.267C110.863 154.909 110.838 154.526 110.821 154.127C110.78 153.419 110.738 152.637 110.688 151.788C110.663 151.422 110.646 151.047 110.621 150.664C110.613 150.539 110.605 150.406 110.596 150.273C110.513 148.958 110.422 147.509 110.305 145.953C110.28 145.645 110.263 145.329 110.239 145.004C110.214 144.688 110.189 144.363 110.164 144.03C110.139 143.706 110.114 143.373 110.089 143.031C110.064 142.698 110.039 142.357 110.005 142.016C109.98 141.675 109.947 141.325 109.922 140.975C109.897 140.626 109.864 140.268 109.839 139.91C108.857 128.082 107.167 112.434 104.337 98.2171C104.121 97.1433 103.871 96.1029 103.596 95.104C103.488 94.7045 103.372 94.3133 103.247 93.9221C103.122 93.5309 102.997 93.1563 102.864 92.7818C102.664 92.2241 102.456 91.6747 102.24 91.1337C101.948 90.4179 101.64 89.7353 101.316 89.0611C101.074 88.5617 100.825 88.0789 100.558 87.6045C100.3 87.13 100.034 86.6639 99.7508 86.2144C99.6592 86.0646 99.5677 85.9148 99.4678 85.765C99.2763 85.4736 99.0932 85.1823 98.8934 84.8993C98.7936 84.7578 98.702 84.6163 98.6021 84.4748C98.111 83.7756 97.595 83.1097 97.0623 82.4771C96.954 82.3523 96.8458 82.2274 96.746 82.1026C96.3131 81.6032 95.8803 81.1287 95.4308 80.6709C95.3143 80.5544 95.2061 80.4462 95.0896 80.3297C84.7849 70.1083 70.0855 69.509 68.1294 69.0345C68.1045 69.0262 68.0712 69.0179 68.0462 69.0096C67.9463 68.9846 67.8548 68.9596 67.7549 68.9263C67.7132 68.9097 67.6633 68.9014 67.6217 68.8847C67.5717 68.8681 67.5301 68.8514 67.4885 68.8348C67.4469 68.8181 67.397 68.8015 67.3553 68.7848L67.2222 68.7266C67.1805 68.7099 67.1389 68.6933 67.089 68.6683C66.6229 68.4685 66.1567 68.2022 65.6906 67.8692C65.6157 67.811 65.5408 67.761 65.4659 67.6944C65.4243 67.6611 65.3743 67.6195 65.3244 67.5862C65.2328 67.5113 65.1413 67.4364 65.0497 67.3532C64.9998 67.3115 64.9581 67.2699 64.9165 67.2283C64.8749 67.1867 64.825 67.1451 64.7833 67.1035C64.7334 67.0618 64.6918 67.0119 64.6418 66.9703C64.5503 66.8787 64.467 66.7872 64.3755 66.6956C64.3339 66.6457 64.2839 66.604 64.2423 66.5541C64.2007 66.5042 64.1591 66.4542 64.1091 66.4043C64.0675 66.3543 64.0259 66.3044 63.976 66.2544C63.9343 66.2045 63.8927 66.1546 63.8511 66.0963C63.8511 66.0963 63.8428 66.0963 63.8428 66.088C63.8012 66.038 63.7595 65.9881 63.7179 65.9298C62.536 64.3816 61.5871 62.2342 61.2042 59.4125C60.3885 53.4028 61.2458 40.2266 61.2458 40.2266L56.3765 43.0899L46.9542 48.6334C47.104 52.4206 47.1623 55.4754 47.0208 57.9558C46.7877 62.0177 46.0136 64.5564 44.2241 66.3543C44.0909 66.4875 43.9577 66.6124 43.8162 66.7372C43.7496 66.8038 43.6747 66.8621 43.5998 66.9203C43.5249 66.9786 43.45 67.0369 43.375 67.0951C43.3001 67.1534 43.2169 67.2117 43.142 67.2699C43.0587 67.3282 42.9838 67.3865 42.9006 67.4364C42.4844 67.7111 42.035 67.9691 41.5439 68.2105C41.5439 68.2105 41.5355 68.2105 41.5355 68.2188C41.4356 68.2688 41.3441 68.3104 41.2442 68.3603C41.1443 68.4103 41.0361 68.4602 40.9362 68.5018C40.828 68.5518 40.7281 68.5934 40.6199 68.635C40.5201 68.6766 40.4118 68.7182 40.3036 68.7682C40.1871 68.8098 40.0706 68.8597 39.9457 68.9014C39.7043 68.9929 39.4546 69.0845 39.1883 69.1677C39.0967 69.201 38.9968 69.2343 38.9053 69.2676C38.5973 69.3675 38.281 69.4674 37.9564 69.5672C37.8565 69.5922 37.7566 69.6255 37.6567 69.6588C37.6151 69.6671 37.5818 69.6838 37.5402 69.6921C37.382 69.742 37.2239 69.7837 37.0574 69.8336C36.8077 69.9002 36.558 69.9668 36.3 70.0417C35.0098 70.383 33.6031 70.7991 32.1299 71.2986C31.7636 71.4234 31.3891 71.5566 31.0145 71.6898C30.6399 71.8229 30.2571 71.9644 29.8742 72.1143C29.4913 72.2641 29.1084 72.4139 28.7172 72.5721C18.9952 76.5008 7.84161 83.9338 6.09365 97.0601C3.82963 113.874 1.6655 157.406 1.6655 157.406Z" fill="#FAE5E6"/>
<path d="M1.6655 157.405L7.40878 157.479L20.2438 157.638L21.3258 157.646L44.6652 157.937L50.5833 158.012L79.8158 158.37L81.8967 158.395L85.867 158.445L98.136 158.595L111.046 158.753C111.046 158.753 111.029 158.337 110.996 157.546C110.979 157.205 110.963 156.797 110.938 156.323C110.921 155.998 110.904 155.64 110.888 155.257C110.871 154.899 110.846 154.516 110.829 154.117C110.788 153.409 110.746 152.627 110.696 151.778C110.671 151.412 110.655 151.037 110.63 150.654C110.621 150.529 110.613 150.396 110.605 150.263C110.522 148.948 110.422 147.499 110.313 145.943C110.288 145.635 110.272 145.319 110.247 144.994C110.222 144.678 110.197 144.353 110.172 144.02C110.164 143.954 110.164 143.879 110.155 143.812C110.139 143.554 110.114 143.288 110.097 143.021C110.089 142.88 110.072 142.738 110.064 142.589C110.047 142.397 110.03 142.197 110.022 141.998C109.997 141.656 109.964 141.307 109.939 140.957C109.914 140.608 109.881 140.25 109.856 139.892C109.606 136.854 109.306 133.566 108.948 130.112C108.907 129.712 108.865 129.304 108.823 128.896C108.407 124.901 107.916 120.706 107.342 116.444C107.292 116.045 107.234 115.637 107.175 115.237C106.609 111.109 105.96 106.93 105.219 102.827C105.144 102.427 105.078 102.019 105.003 101.62C104.795 100.471 104.578 99.3308 104.354 98.1988C104.137 97.1251 103.888 96.0846 103.613 95.0858C103.505 94.6863 103.388 94.2951 103.263 93.9039C103.138 93.5126 103.014 93.1381 102.88 92.7635C102.681 92.2058 102.473 91.6565 102.256 91.1154C102.006 90.4995 101.74 89.9002 101.465 89.3175C101.424 89.226 101.382 89.1344 101.341 89.0512C101.191 88.7432 101.041 88.4436 100.883 88.1439C100.783 87.9608 100.691 87.7777 100.591 87.5946C100.333 87.1201 100.059 86.654 99.7841 86.2045C99.6925 86.0547 99.601 85.9049 99.5011 85.755C99.3096 85.4637 99.1182 85.1724 98.9267 84.8894C98.8269 84.7479 98.7353 84.6064 98.6354 84.4649C98.1443 83.7657 97.6283 83.0998 97.0955 82.4672C96.9873 82.3424 96.8791 82.2175 96.7793 82.0927C96.3464 81.5933 95.9136 81.1188 95.4641 80.661C95.3476 80.5445 95.2394 80.4363 95.1229 80.3197C93.558 78.7716 91.9016 77.4481 90.1953 76.3078C89.6043 75.9166 89.0133 75.542 88.4224 75.1924C79.358 69.857 69.7192 69.3992 68.1627 69.0246C68.1378 69.0163 68.1045 69.0163 68.0795 68.9997C68.0712 68.9997 68.0628 68.9913 68.0545 68.9913C67.963 68.9664 67.8797 68.9414 67.7882 68.9164C67.7382 68.8998 67.6966 68.8914 67.655 68.8748C67.6134 68.8581 67.5634 68.8415 67.5218 68.8249C67.4802 68.8082 67.4302 68.7916 67.3886 68.7749L67.2555 68.7166C67.2138 68.7 67.1722 68.6834 67.1223 68.6584C66.9974 68.6084 66.8726 68.5419 66.7477 68.4836C66.4064 68.3088 66.0652 68.109 65.7239 67.8593C65.649 67.8011 65.5741 67.7511 65.4992 67.6845C65.4576 67.6512 65.4076 67.6096 65.3577 67.5763C65.2661 67.5014 65.1745 67.4265 65.083 67.3433C65.033 67.3016 64.9914 67.26 64.9498 67.2184C64.9082 67.1768 64.8583 67.1352 64.8166 67.0935C64.7667 67.0519 64.7251 67.002 64.6751 66.9604C64.5836 66.8688 64.492 66.7773 64.4088 66.6857C64.3672 66.6357 64.3172 66.5941 64.2756 66.5442C64.234 66.4943 64.184 66.4443 64.1424 66.3944C64.1008 66.3444 64.0592 66.2945 64.0092 66.2445C63.9676 66.1946 63.926 66.1447 63.8844 66.0864C63.8844 66.0864 63.8761 66.0864 63.8761 66.0781C63.8345 66.0281 63.7928 65.9782 63.7512 65.9199C52.2896 70.8142 46.1967 67.7261 44.249 66.3361C44.1158 66.4693 43.9827 66.5941 43.8412 66.719C43.7746 66.7856 43.6997 66.8438 43.6248 66.9021C43.5498 66.9604 43.4749 67.0186 43.4 67.0769C43.3251 67.1352 43.2419 67.1934 43.167 67.2517C43.0837 67.31 43.0088 67.3682 42.9256 67.4182C42.5094 67.6928 42.0599 67.9509 41.5688 68.1923C41.5688 68.1923 41.5605 68.1923 41.5605 68.2006C41.4606 68.2505 41.3691 68.2921 41.2692 68.3421C41.1693 68.392 41.0611 68.442 40.9612 68.4836C40.853 68.5335 40.7531 68.5751 40.6449 68.6168C40.6449 68.6168 40.6449 68.6168 40.6366 68.6168C40.5533 68.6501 40.4784 68.6834 40.3952 68.7166C40.3702 68.725 40.3536 68.7333 40.3286 68.7416C40.2121 68.7832 40.0955 68.8332 39.9707 68.8748C39.7293 68.9664 39.4796 69.0579 39.2132 69.1411C39.1217 69.1744 39.0218 69.2077 38.9302 69.241C38.6223 69.3409 38.306 69.4408 37.9814 69.5407C37.973 69.5407 37.9564 69.549 37.9397 69.549C37.8482 69.574 37.7649 69.5989 37.6734 69.6239C37.6318 69.6322 37.5985 69.6489 37.5569 69.6572C37.3987 69.7072 37.2406 69.7488 37.0741 69.7987C36.8244 69.8653 36.5747 69.9319 36.3166 70.0068C35.0265 70.3481 33.6198 70.7643 32.1465 71.2637C31.7803 71.3885 31.4057 71.5134 31.0312 71.6549C30.6566 71.7881 30.2737 71.9296 29.8908 72.0794C29.5079 72.2292 29.125 72.379 28.7338 72.5372C26.5031 73.4361 24.1975 74.5265 21.9418 75.825C21.3258 76.1746 20.7182 76.5492 20.1106 76.932C15.5909 79.8203 11.454 83.6242 8.81547 88.5684C8.60738 88.9513 8.41594 89.3342 8.23282 89.7337C7.20069 91.9395 6.45988 94.3617 6.10197 97.0252C5.91052 98.4985 5.71076 100.172 5.51932 102.003C5.4777 102.402 5.43609 102.802 5.39447 103.218C5.32788 103.9 5.25297 104.608 5.18638 105.332V105.34C4.88673 108.512 4.58709 112.016 4.30408 115.662C4.27079 116.07 4.2375 116.469 4.21252 116.877C3.90456 120.972 3.6049 125.209 3.33023 129.337C3.30526 129.745 3.28028 130.153 3.24699 130.553C2.96398 134.981 2.69763 139.242 2.48122 143.021C2.45625 143.438 2.43127 143.845 2.41463 144.245C2.05671 150.404 1.81532 155.074 1.73209 156.722C1.67382 157.188 1.6655 157.405 1.6655 157.405Z" fill="#5469F1"/>
<path d="M44.6639 157.939L50.582 158.014L53.2705 74.1367L50.9066 70.5742L47.6271 75.2021L44.6639 157.939Z" fill="#5163AF"/>
<path d="M60.6729 42.5801C60.6729 42.5801 60.265 49.1973 55.4956 55.3069C52.3742 59.3022 48.9865 58.8111 47.0222 57.9954C47.1637 55.5149 47.1137 52.4685 46.9556 48.673L56.3779 43.1294L60.6729 42.5801Z" fill="#242374"/>
<path d="M64.4337 35.8264C63.2517 35.6766 62.4776 35.9846 62.0198 36.2925C62.0947 30.0998 61.4788 22.5586 61.4788 22.5586H38.3891L38.4474 36.1926C38.4474 36.1926 38.489 36.8669 38.4474 41.1452C38.3974 46.3474 42.6175 54.2715 48.2775 54.2715C56.984 54.2715 60.1803 47.879 61.4039 42.9348C62.7773 43.2344 64.9247 43.4175 65.6655 41.8277C66.7976 39.4222 66.5728 36.1094 64.4337 35.8264Z" fill="#FAE5E6"/>
<path d="M51.7638 40.6873C51.3868 40.6873 51.0812 40.3818 51.0812 40.0048C51.0812 39.6278 51.3868 39.3223 51.7638 39.3223C52.1407 39.3223 52.4463 39.6278 52.4463 40.0048C52.4463 40.3818 52.1407 40.6873 51.7638 40.6873Z" fill="#242374"/>
<path d="M44.6554 40.6873C44.2784 40.6873 43.9728 40.3818 43.9728 40.0048C43.9728 39.6278 44.2784 39.3223 44.6554 39.3223C45.0323 39.3223 45.3379 39.6278 45.3379 40.0048C45.3379 40.3818 45.0323 40.6873 44.6554 40.6873Z" fill="#242374"/>
<path d="M48.9423 35.4559C48.9423 35.4559 49.3669 35.5724 51.2563 35.5724C53.1458 35.5724 53.9864 35.7556 53.9532 35.5724C53.8033 34.79 50.4323 34.3905 49.8663 34.4737C49.3003 34.557 48.7093 34.9482 48.9423 35.4559Z" fill="#242374"/>
<path d="M45.9718 35.4559C45.9718 35.4559 45.5473 35.5724 43.6578 35.5724C41.7684 35.5724 40.9277 35.7556 40.961 35.5724C41.1108 34.79 44.4819 34.3905 45.0479 34.4737C45.6055 34.557 46.2048 34.9482 45.9718 35.4559Z" fill="#242374"/>
<path d="M62.5604 35.651L61.1621 40.5453C61.1621 40.5453 61.0622 34.6855 60.388 30.9565C59.7138 27.2275 57.6412 26.2953 55.5436 25.9291C55.4854 25.9207 55.4105 25.9207 55.3356 25.9291H40.1783C40.1783 25.9291 35.7834 24.4891 40.1117 19.5865C40.5445 19.3701 43.0416 18.8873 43.5327 18.7541C49.4674 17.1477 58.5235 14.8254 60.1383 20.5853C60.1383 20.5853 62.5771 18.4794 63.4011 23.3155C64.2168 28.1598 62.5604 35.651 62.5604 35.651Z" fill="#242374"/>
<path d="M47.6452 44.755C47.6119 44.73 47.4371 44.7051 47.2956 44.6801C46.8128 44.6052 46.2135 44.5053 46.1137 44.164C46.0637 43.9809 46.1636 43.7811 46.4383 43.5564C47.4288 42.6991 47.2623 40.8263 47.254 40.8096L47.4621 40.793C47.4704 40.8762 47.6452 42.799 46.5714 43.7229C46.38 43.8893 46.2884 44.0308 46.3134 44.1224C46.3717 44.3388 46.996 44.4387 47.3289 44.4886C47.5703 44.5303 47.6951 44.5469 47.7617 44.5969L47.6452 44.755Z" fill="#242374"/>
<path d="M47.6017 45.793C47.6017 45.793 49.3663 45.6182 50.5732 44.9023C50.5732 44.9023 50.2736 47.0249 47.6017 45.793Z" fill="#242374"/>
<path d="M38.3898 34.456C38.3898 34.456 39.064 30.0861 41.5528 27.5973C41.5528 27.5973 47.6873 25.3833 50.6338 32.6414C53.5804 39.8996 62.5615 35.6379 62.5615 35.6379L61.3879 35.0386C61.3879 35.0386 54.6791 37.4691 52.3651 32.7746C52.3651 32.7746 55.3283 36.8116 62.0205 34.4477L60.6721 23.0277L37.8654 21.6543C37.8571 21.6626 35.7762 26.2489 38.3898 34.456Z" fill="#242374"/>
<path d="M62.7682 21.2491C62.7682 21.2491 65.4151 16.796 61.5946 14.0492C57.774 11.3024 50.3078 12.7507 48.0937 14.0492C45.8796 15.3477 41.568 11.3024 38.3884 14.7317C35.2088 18.161 38.713 24.5702 38.713 24.5702L62.7682 21.2491Z" fill="#242374"/>
<path d="M41.5535 27.5988C41.5535 27.5988 42.7105 34.9319 38.1991 36.8879C38.1991 36.8879 34.9779 28.8557 37.8662 21.6641L41.5535 27.5988Z" fill="#242374"/>
<path d="M79.815 158.382L85.8662 158.457C84.0933 139.712 78.4832 90.3196 78.35 89.1543C78.4249 90.303 81.6461 137.589 79.815 158.382Z" fill="#242374"/>
<path d="M20.2434 157.639L21.3255 157.655L26.9189 90.2676L20.2434 157.639Z" fill="#242374"/>
<path d="M5.14606 105.384C8.89168 82.7185 30.275 72.5554 37.8994 69.6172C37.8079 69.6422 37.7246 69.6671 37.6331 69.6921C37.5914 69.7004 37.5581 69.7171 37.5165 69.7254C37.3584 69.7753 37.2002 69.817 37.0338 69.8669C36.7841 69.9335 36.5343 70.0001 36.2763 70.075C34.9862 70.4163 33.5795 70.8324 32.1062 71.3319C31.74 71.4567 31.3654 71.5816 30.9908 71.7231C30.6163 71.8562 30.2334 71.9977 29.8505 72.1476C29.4676 72.2974 29.0847 72.4472 28.6935 72.6054C26.4628 73.5043 24.1572 74.5947 21.9015 75.8932C21.2855 76.2428 20.6779 76.6173 20.0703 77.0002C15.5506 79.8885 11.4137 83.6924 8.77515 88.6366C8.56706 89.0195 8.37562 89.4024 8.1925 89.8019C7.16037 92.0077 6.41957 94.4298 6.06166 97.0934C5.87022 98.5667 5.67044 100.24 5.479 102.071C5.43738 102.47 5.39577 102.87 5.35415 103.286C5.28756 103.952 5.21265 104.66 5.14606 105.384Z" fill="#242374"/>
<path d="M40.3467 68.7763L45.6072 76.2842C45.8486 76.6337 46.3563 76.6421 46.6143 76.3008L50.9093 70.5742L54.7548 76.434C54.9462 76.7336 55.3541 76.8085 55.6371 76.5921L66.7158 68.5266C66.3746 68.3518 66.0333 68.152 65.692 67.9023C65.6171 67.844 65.5422 67.7941 65.4673 67.7275C65.4257 67.6942 65.3757 67.6526 65.3258 67.6193C65.2342 67.5444 65.1427 67.4695 65.0511 67.3862C65.0012 67.3446 64.9595 67.303 64.9179 67.2614C64.8763 67.2198 64.8264 67.1781 64.7847 67.1365C64.7348 67.0949 64.6932 67.045 64.6432 67.0033C64.5517 66.9118 64.4601 66.8202 64.3769 66.7287C64.3353 66.6787 64.2853 66.6371 64.2437 66.5872C64.2021 66.5372 64.1522 66.4873 64.1105 66.4373C64.0689 66.3874 64.0273 66.3375 63.9774 66.2875C63.9357 66.2376 63.8941 66.1876 63.8525 66.1294C63.8525 66.1294 63.8442 66.1294 63.8442 66.121C63.8026 66.0711 63.7609 66.0212 63.7193 65.9629C52.2577 70.8572 46.1649 67.7691 44.2171 66.3791C44.084 66.5122 43.9508 66.6371 43.8093 66.762C43.7427 66.8285 43.6678 66.8868 43.5929 66.9451C43.518 67.0033 43.443 67.0616 43.3681 67.1199C43.2932 67.1781 43.21 67.2364 43.1351 67.2947C43.0518 67.3529 42.9769 67.4112 42.8937 67.4611C42.4775 67.7358 42.028 67.9939 41.5369 68.2352C41.5369 68.2352 41.5286 68.2352 41.5286 68.2436C41.4287 68.2935 41.3372 68.3351 41.2373 68.3851C41.1374 68.435 41.0292 68.4849 40.9293 68.5266C40.8211 68.5765 40.7212 68.6181 40.613 68.6597C40.613 68.6597 40.613 68.6597 40.6047 68.6597C40.5131 68.7097 40.4299 68.743 40.3467 68.7763Z" fill="#5469F1"/>
<path d="M40.3043 68.9853L45.4816 76.3683C45.6231 76.5764 45.8645 76.7013 46.1142 76.7013C46.3639 76.7013 46.5803 76.5847 46.7302 76.3933L50.892 70.8414L52.9895 74.046L53.4307 74.7119L54.6126 76.5181C54.7541 76.7346 54.9955 76.8677 55.2619 76.8677C55.4283 76.8677 55.5865 76.8178 55.7197 76.7179L66.79 68.6523C66.6569 68.669 66.5237 68.6773 66.3905 68.6773C66.3406 68.6773 66.2906 68.6773 66.2407 68.6773L55.5365 76.4682C55.4533 76.5265 55.3617 76.5598 55.2619 76.5598C55.1037 76.5598 54.9539 76.4765 54.8706 76.3517L53.4473 74.1792L53.0062 73.5133L50.9086 70.3171L46.4805 76.2102C46.3889 76.3267 46.2557 76.4016 46.1059 76.4016C45.9478 76.4016 45.8062 76.3267 45.723 76.2018L40.7039 69.0436C40.579 69.0269 40.4375 69.0103 40.3043 68.9853Z" fill="#242374"/>
<path d="M50.5321 157.334L50.9899 157.343L53.437 74.7142L53.4453 74.1815L53.0125 73.5156L52.9958 74.0483L50.5321 157.334Z" fill="#242374"/>
<path d="M49.0604 113.475C48.6375 113.475 48.2946 113.132 48.2946 112.709C48.2946 112.286 48.6375 111.943 49.0604 111.943C49.4833 111.943 49.8262 112.286 49.8262 112.709C49.8262 113.132 49.4833 113.475 49.0604 113.475Z" fill="#242374"/>
<path d="M49.6258 95.8577C49.2029 95.8577 48.8601 95.5149 48.8601 95.0919C48.8601 94.669 49.2029 94.3262 49.6258 94.3262C50.0488 94.3262 50.3916 94.669 50.3916 95.0919C50.3916 95.5149 50.0488 95.8577 49.6258 95.8577Z" fill="#242374"/>
<path d="M50.1913 78.2464C49.7683 78.2464 49.4255 77.9035 49.4255 77.4806C49.4255 77.0577 49.7683 76.7148 50.1913 76.7148C50.6142 76.7148 50.957 77.0577 50.957 77.4806C50.957 77.9035 50.6142 78.2464 50.1913 78.2464Z" fill="#242374"/>
</g>
</svg>
