<svg width="13" height="14" viewBox="0 0 13 14" fill="none" xmlns="http://www.w3.org/2000/svg">
<path d="M10.1667 4.66667C10.1667 3.69421 9.78036 2.76158 9.09273 2.07394C8.40509 1.38631 7.47246 1 6.5 1C5.52754 1 4.59491 1.38631 3.90728 2.07394C3.21964 2.76158 2.83333 3.69421 2.83333 4.66667C2.83333 8.94444 1 10.1667 1 10.1667H12C12 10.1667 10.1667 8.94444 10.1667 4.66667Z" stroke="white" stroke-width="1.5" stroke-linecap="round" stroke-linejoin="round"/>
<path d="M7.5578 12.6113C7.45036 12.7965 7.29615 12.9503 7.11061 13.0572C6.92507 13.164 6.7147 13.2203 6.50058 13.2203C6.28646 13.2203 6.0761 13.164 5.89055 13.0572C5.70501 12.9503 5.5508 12.7965 5.44336 12.6113" stroke="white" stroke-width="1.5" stroke-linecap="round" stroke-linejoin="round"/>
</svg>
